<svg xmlns="http://www.w3.org/2000/svg" width="1600" height="1050" viewBox="0 0 1600 1050"><defs><linearGradient id="food" x1="0" x2="1"><stop stop-color="#d8b78c"/><stop offset=".45" stop-color="#8d674e"/><stop offset="1" stop-color="#26322c"/></linearGradient></defs><rect width="1600" height="1050" fill="#F9F9F7"/><text x="70" y="70" font-family="Georgia" font-size="36" font-weight="700" fill="#2C2F24">Bistro Bliss — Full-Stack Visual Preview</text><text x="70" y="104" font-family="Arial" font-size="16" fill="#666">Public restaurant UX, menu browsing, reservation flow and protected administration</text><rect x="70" y="150" width="710" height="390" rx="18" fill="#fff" stroke="#DBDFD0"/><rect x="70" y="150" width="710" height="38" rx="18" fill="#eef1f4"/><text x="94" y="222" font-family="Georgia" font-size="20" font-weight="700" fill="#2C2F24">Public Home</text><rect x="94" y="248" width="662" height="205" rx="15" fill="url(#food)"/><rect x="94" y="248" width="662" height="205" rx="15" fill="#fff" opacity=".3"/><text x="425" y="327" text-anchor="middle" font-family="Georgia" font-size="28" font-weight="700" fill="#2C2F24">Best food for your taste</text><rect x="340" y="372" width="110" height="36" rx="18" fill="#AD343E"/><text x="362" y="395" font-family="Arial" font-size="10" fill="#fff">Book A Table</text><rect x="462" y="372" width="110" height="36" rx="18" fill="#fff" stroke="#2C2F24"/><text x="488" y="395" font-family="Arial" font-size="10" fill="#2C2F24">View Menu</text><rect x="820" y="150" width="710" height="390" rx="18" fill="#fff" stroke="#DBDFD0"/><rect x="820" y="150" width="710" height="38" rx="18" fill="#eef1f4"/><text x="844" y="222" font-family="Georgia" font-size="20" font-weight="700" fill="#2C2F24">Menu Discovery</text><rect x="846" y="256" width="146" height="216" rx="13" fill="#F9F9F7" stroke="#DBDFD0"/><rect x="858" y="270" width="122" height="86" rx="11" fill="#d29c70"/><text x="858" y="382" font-family="Arial" font-size="12" font-weight="700" fill="#2C2F24">Fried Eggs</text><text x="858" y="407" font-family="Arial" font-size="11" font-weight="700" fill="#AD343E">$9.99</text><text x="858" y="434" font-family="Arial" font-size="9" fill="#777">View details</text><rect x="1008" y="256" width="146" height="216" rx="13" fill="#F9F9F7" stroke="#DBDFD0"/><rect x="1020" y="270" width="122" height="86" rx="11" fill="#9d704f"/><text x="1020" y="382" font-family="Arial" font-size="12" font-weight="700" fill="#2C2F24">Grilled Steak</text><text x="1020" y="407" font-family="Arial" font-size="11" font-weight="700" fill="#AD343E">$18.5</text><text x="1020" y="434" font-family="Arial" font-size="9" fill="#777">View details</text><rect x="1170" y="256" width="146" height="216" rx="13" fill="#F9F9F7" stroke="#DBDFD0"/><rect x="1182" y="270" width="122" height="86" rx="11" fill="#d0b489"/><text x="1182" y="382" font-family="Arial" font-size="12" font-weight="700" fill="#2C2F24">Fresh Salad</text><text x="1182" y="407" font-family="Arial" font-size="11" font-weight="700" fill="#AD343E">$11</text><text x="1182" y="434" font-family="Arial" font-size="9" fill="#777">View details</text><rect x="1332" y="256" width="146" height="216" rx="13" fill="#F9F9F7" stroke="#DBDFD0"/><rect x="1344" y="270" width="122" height="86" rx="11" fill="#7d8c66"/><text x="1344" y="382" font-family="Arial" font-size="12" font-weight="700" fill="#2C2F24">Pasta Bowl</text><text x="1344" y="407" font-family="Arial" font-size="11" font-weight="700" fill="#AD343E">$14.25</text><text x="1344" y="434" font-family="Arial" font-size="9" fill="#777">View details</text><rect x="70" y="580" width="710" height="390" rx="18" fill="#fff" stroke="#DBDFD0"/><rect x="70" y="580" width="710" height="38" rx="18" fill="#eef1f4"/><text x="94" y="652" font-family="Georgia" font-size="20" font-weight="700" fill="#2C2F24">Reservation Flow</text><rect x="150" y="688" width="550" height="240" rx="16" fill="#F9F9F7" stroke="#DBDFD0"/><text x="174" y="722" font-family="Georgia" font-size="22" font-weight="700" fill="#2C2F24">Book A Table</text><text x="174" y="760" font-family="Arial" font-size="9" fill="#666">Name</text><rect x="174" y="770" width="210" height="30" rx="8" fill="#fff" stroke="#DBDFD0"/><text x="424" y="760" font-family="Arial" font-size="9" fill="#666">Email</text><rect x="424" y="770" width="210" height="30" rx="8" fill="#fff" stroke="#DBDFD0"/><text x="174" y="818" font-family="Arial" font-size="9" fill="#666">Date</text><rect x="174" y="828" width="210" height="30" rx="8" fill="#fff" stroke="#DBDFD0"/><text x="424" y="818" font-family="Arial" font-size="9" fill="#666">Time</text><rect x="424" y="828" width="210" height="30" rx="8" fill="#fff" stroke="#DBDFD0"/><text x="174" y="876" font-family="Arial" font-size="9" fill="#666">Party Size</text><rect x="174" y="886" width="220" height="30" rx="8" fill="#fff" stroke="#DBDFD0"/><rect x="524" y="880" width="145" height="36" rx="18" fill="#AD343E"/><text x="558" y="903" font-family="Arial" font-size="10" fill="#fff">Confirm Booking</text><rect x="820" y="580" width="710" height="390" rx="18" fill="#fff" stroke="#DBDFD0"/><rect x="820" y="580" width="710" height="38" rx="18" fill="#eef1f4"/><text x="844" y="652" font-family="Georgia" font-size="20" font-weight="700" fill="#2C2F24">Admin Booking Management</text><rect x="846" y="682" width="658" height="248" rx="14" fill="#303640"/><text x="868" y="714" font-family="Georgia" font-size="18" font-weight="700" fill="#fff">Admin Panel — Reservations</text><line x1="868" y1="768" x2="1478" y2="768" stroke="#59606a"/><text x="876" y="757" font-family="Arial" font-size="10" fill="#f1f1f1">Sara Ahmed</text><text x="1058" y="757" font-family="Arial" font-size="9" fill="#d4d7da">Jan 18 • 7:30 PM</text><rect x="1306" y="740" width="74" height="22" rx="11" fill="#305d42"/><text x="1322" y="755" font-family="Arial" font-size="8" fill="#fff">Accept</text><rect x="1390" y="740" width="74" height="22" rx="11" fill="#AD343E"/><text x="1409" y="755" font-family="Arial" font-size="8" fill="#fff">Reject</text><line x1="868" y1="806" x2="1478" y2="806" stroke="#59606a"/><text x="876" y="795" font-family="Arial" font-size="10" fill="#f1f1f1">Omar Hassan</text><text x="1058" y="795" font-family="Arial" font-size="9" fill="#d4d7da">Jan 18 • 8:00 PM</text><rect x="1306" y="778" width="74" height="22" rx="11" fill="#305d42"/><text x="1322" y="793" font-family="Arial" font-size="8" fill="#fff">Accept</text><rect x="1390" y="778" width="74" height="22" rx="11" fill="#AD343E"/><text x="1409" y="793" font-family="Arial" font-size="8" fill="#fff">Reject</text><line x1="868" y1="844" x2="1478" y2="844" stroke="#59606a"/><text x="876" y="833" font-family="Arial" font-size="10" fill="#f1f1f1">Mona Ali</text><text x="1058" y="833" font-family="Arial" font-size="9" fill="#d4d7da">Jan 19 • 6:30 PM</text><rect x="1306" y="816" width="74" height="22" rx="11" fill="#305d42"/><text x="1322" y="831" font-family="Arial" font-size="8" fill="#fff">Accept</text><rect x="1390" y="816" width="74" height="22" rx="11" fill="#AD343E"/><text x="1409" y="831" font-family="Arial" font-size="8" fill="#fff">Reject</text><line x1="868" y1="882" x2="1478" y2="882" stroke="#59606a"/><text x="876" y="871" font-family="Arial" font-size="10" fill="#f1f1f1">Youssef Samir</text><text x="1058" y="871" font-family="Arial" font-size="9" fill="#d4d7da">Jan 19 • 9:00 PM</text><rect x="1306" y="854" width="74" height="22" rx="11" fill="#305d42"/><text x="1322" y="869" font-family="Arial" font-size="8" fill="#fff">Accept</text><rect x="1390" y="854" width="74" height="22" rx="11" fill="#AD343E"/><text x="1409" y="869" font-family="Arial" font-size="8" fill="#fff">Reject</text></svg>