<svg xmlns="http://www.w3.org/2000/svg" width="1600" height="920" viewBox="0 0 1600 920">
<defs><linearGradient id="food" x1="0" y1="0" x2="1" y2="1"><stop stop-color="#d8b78c"/><stop offset=".45" stop-color="#8d674e"/><stop offset="1" stop-color="#26322c"/></linearGradient><filter id="s"><feDropShadow dx="0" dy="7" stdDeviation="11" flood-opacity=".12"/></filter></defs>
<rect width="1600" height="920" fill="#F9F9F7"/><rect x="18" y="16" width="1564" height="888" rx="22" fill="#fff" stroke="#DBDFD0"/>
<rect x="18" y="16" width="1564" height="54" rx="22" fill="#eef1f4"/><circle cx="48" cy="43" r="7" fill="#ef6a5f"/><circle cx="70" cy="43" r="7" fill="#f4c451"/><circle cx="92" cy="43" r="7" fill="#5fc174"/><text x="130" y="49" font-family="Arial" font-size="16" fill="#59636d">Bistro Bliss — Restaurant Platform</text>
<rect x="18" y="70" width="1564" height="84" fill="#fff"/><text x="70" y="121" font-family="Georgia" font-size="29" font-weight="700" fill="#2C2F24">Bistro Bliss</text><text x="720" y="120" font-family="Arial" font-size="16" fill="#AD343E" font-weight="700">Home</text><text x="842" y="120" font-family="Arial" font-size="16" fill="#2C2F24" font-weight="500">About</text><text x="964" y="120" font-family="Arial" font-size="16" fill="#2C2F24" font-weight="500">Menu</text><text x="1086" y="120" font-family="Arial" font-size="16" fill="#2C2F24" font-weight="500">Pages</text><text x="1208" y="120" font-family="Arial" font-size="16" fill="#2C2F24" font-weight="500">Contact</text><rect x="1360" y="92" width="154" height="42" rx="21" fill="#2C2F24"/><text x="1397" y="119" font-family="Arial" font-size="14" font-weight="700" fill="#fff">Book A Table</text>
<rect x="18" y="154" width="1564" height="514" fill="url(#food)"/><rect x="18" y="154" width="1564" height="514" fill="#fff" opacity=".33"/>
<text x="800" y="305" text-anchor="middle" font-family="Georgia" font-size="68" font-weight="600" fill="#2C2F24">Best food for your taste</text><text x="800" y="364" text-anchor="middle" font-family="Arial" font-size="20" fill="#414536">Discover delectable cuisine and unforgettable moments in our welcoming culinary haven.</text>
<rect x="606" y="424" width="178" height="58" rx="29" fill="#AD343E"/><text x="649" y="460" font-family="Arial" font-size="16" font-weight="700" fill="#fff">Book A Table</text><rect x="810" y="424" width="178" height="58" rx="29" fill="none" stroke="#2C2F24" stroke-width="2"/><text x="859" y="460" font-family="Arial" font-size="16" font-weight="700" fill="#2C2F24">Explore Menu</text>
<text x="72" y="738" font-family="Georgia" font-size="35" fill="#2C2F24">Browse Our Menu</text>
<g filter="url(#s)"><rect x="72" y="774" width="334" height="104" rx="14" fill="#fff" stroke="#DBDFD0"/><circle cx="116" cy="826" r="28" fill="#F9F9F7" stroke="#DBDFD0"/><text x="162" y="813" font-family="Arial" font-size="18" font-weight="700" fill="#2C2F24">Breakfast</text><text x="162" y="840" font-family="Arial" font-size="12" fill="#5e665d">Fresh morning favorites</text><text x="162" y="864" font-family="Arial" font-size="11" font-weight="700" fill="#AD343E">Explore Menu →</text></g><g filter="url(#s)"><rect x="444" y="774" width="334" height="104" rx="14" fill="#fff" stroke="#DBDFD0"/><circle cx="488" cy="826" r="28" fill="#F9F9F7" stroke="#DBDFD0"/><text x="534" y="813" font-family="Arial" font-size="18" font-weight="700" fill="#2C2F24">Main Dishes</text><text x="534" y="840" font-family="Arial" font-size="12" fill="#5e665d">Chef-crafted classics</text><text x="534" y="864" font-family="Arial" font-size="11" font-weight="700" fill="#AD343E">Explore Menu →</text></g><g filter="url(#s)"><rect x="816" y="774" width="334" height="104" rx="14" fill="#fff" stroke="#DBDFD0"/><circle cx="860" cy="826" r="28" fill="#F9F9F7" stroke="#DBDFD0"/><text x="906" y="813" font-family="Arial" font-size="18" font-weight="700" fill="#2C2F24">Drinks</text><text x="906" y="840" font-family="Arial" font-size="12" fill="#5e665d">Hot and cold beverages</text><text x="906" y="864" font-family="Arial" font-size="11" font-weight="700" fill="#AD343E">Explore Menu →</text></g><g filter="url(#s)"><rect x="1188" y="774" width="334" height="104" rx="14" fill="#fff" stroke="#DBDFD0"/><circle cx="1232" cy="826" r="28" fill="#F9F9F7" stroke="#DBDFD0"/><text x="1278" y="813" font-family="Arial" font-size="18" font-weight="700" fill="#2C2F24">Desserts</text><text x="1278" y="840" font-family="Arial" font-size="12" fill="#5e665d">A sweet finish</text><text x="1278" y="864" font-family="Arial" font-size="11" font-weight="700" fill="#AD343E">Explore Menu →</text></g>
</svg>